<?xml version="1.0" standalone="no"?>
<!DOCTYPE svg PUBLIC "-//W3C//DTD SVG 20010904//EN"
 "http://www.w3.org/TR/2001/REC-SVG-20010904/DTD/svg10.dtd">
<svg version="1.0" xmlns="http://www.w3.org/2000/svg"
 width="32.000000pt" height="32.000000pt" viewBox="0 0 32.000000 32.000000"
 preserveAspectRatio="xMidYMid meet">

<g transform="translate(0.000000,32.000000) scale(0.100000,-0.100000)"
fill="#000000" stroke="none">
<path d="M98 309 c-10 -5 -18 -21 -18 -34 0 -18 -6 -24 -25 -27 -33 -4 -36
-20 -8 -33 17 -7 20 -15 16 -36 -3 -15 0 -30 6 -33 20 -13 12 -25 -29 -46 -37
-19 -40 -24 -40 -60 l0 -40 161 0 160 0 -3 38 c-3 31 -9 40 -40 57 -35 18 -38
24 -38 63 0 33 4 42 18 42 9 0 23 4 31 9 11 7 7 12 -19 18 -25 7 -36 17 -43
38 -5 17 -14 36 -20 43 -11 14 -85 16 -109 1z m86 -14 c4 -11 -2 -15 -22 -15
-15 0 -37 -3 -49 -6 -17 -5 -23 -2 -23 9 0 18 14 25 56 26 20 1 34 -5 38 -14z
m-44 -35 c-34 -11 -60 -11 -35 0 11 5 29 8 40 8 16 0 15 -2 -5 -8z m118 -40
c20 -6 10 -8 -43 -9 -91 -1 -175 9 -175 22 0 11 173 0 218 -13z m-110 -50 c10
0 24 6 30 12 10 10 15 10 22 -2 16 -25 11 -33 -15 -28 -13 3 -22 1 -19 -3 9
-15 43 -10 53 9 9 14 10 12 11 -13 0 -70 -61 -96 -112 -47 -16 14 -28 34 -28
44 0 11 -4 16 -10 13 -5 -3 -10 3 -10 14 0 13 5 19 14 15 8 -3 17 0 21 7 6 8
10 7 17 -5 5 -9 17 -16 26 -16z m-57 -93 c-5 -5 -22 -6 -38 -2 l-28 7 25 13
c28 15 60 1 41 -18z m185 -5 c-31 -4 -41 2 -32 17 5 7 16 6 34 -2 l27 -12 -29
-3z m-238 -21 c-7 -2 -16 -9 -20 -15 -4 -6 -8 1 -8 17 0 25 2 26 20 15 13 -9
16 -14 8 -17z m39 -9 c-10 -10 -14 -22 -10 -27 5 -4 2 -5 -5 -1 -11 6 -10 12
4 27 9 10 19 19 22 19 3 0 -2 -8 -11 -18z m77 2 c3 -8 2 -12 -4 -9 -6 3 -10
10 -10 16 0 14 7 11 14 -7z m47 -7 c-10 -9 -11 -8 -5 6 3 10 9 15 12 12 3 -3
0 -11 -7 -18z m80 -14 c13 -16 12 -17 -3 -4 -10 7 -18 15 -18 17 0 8 8 3 21
-13z"/>
<path d="M173 103 c9 -2 23 -2 30 0 6 3 -1 5 -18 5 -16 0 -22 -2 -12 -5z"/>
</g>
</svg>
